<svg xmlns="http://www.w3.org/2000/svg" width="30" height="31" fill="none"><path fill="#36D462" fill-rule="evenodd" d="M3.785 8.271c-.035-.209-.01-.24.2-.254.31-.02.623-.019.935-.017h.246c.21 0 .22.008.251.22.63 4.247 4.044 7.588 8.332 8.138v5.834c-1.94.408-3.547 1.745-4.44 3.517-.747 1.484.299 3.229 1.888 3.229H18.8c1.59 0 2.636-1.745 1.889-3.229-.893-1.772-2.5-3.11-4.44-3.517v-5.834c4.288-.55 7.703-3.89 8.334-8.138.031-.212.042-.22.25-.22h.247c.312-.002.624-.003.935.017.223.014.226.106.19.309-.03.175-.074.378-.131.644-.381 1.768-1.202 3.294-2.283 4.411a1.25 1.25 0 1 0 1.796 1.739c1.428-1.475 2.458-3.43 2.93-5.624l.03-.134c.094-.435.19-.875.202-1.322.014-.552-.114-1.11-.534-1.62-.445-.542-1.017-.757-1.56-.845-.458-.075-1.01-.075-1.558-.074h-.243c-.214 0-.224-.008-.253-.226a4.123 4.123 0 0 0-.125-.617c-.175-.602-.5-1.093-1.028-1.576-1.119-1.023-2.414-1.021-4.078-1.02h-8.74c-1.664-.001-2.96-.003-4.078 1.02-.527.483-.853.974-1.028 1.576-.058.2-.098.406-.125.617-.03.218-.04.226-.253.226h-.243c-.548 0-1.1 0-1.558.074-.543.088-1.115.303-1.56.845-.42.51-.548 1.068-.534 1.62.011.437.118.929.215 1.381.458 2.12 1.43 4.132 2.947 5.699a1.25 1.25 0 0 0 1.796-1.739c-1.35-1.394-2.097-3.22-2.424-5.11z" clip-rule="evenodd"/></svg>