<svg xmlns="http://www.w3.org/2000/svg" width="24" height="24" fill="none"><path stroke="#161C52" stroke-linecap="round" stroke-linejoin="round" stroke-width="1.5" d="M17.267 8.563 13 11.997a2.223 2.223 0 0 1-2.746 0L5.953 8.563" opacity=".4"/><path stroke="#161C52" stroke-linecap="round" stroke-linejoin="round" stroke-width="1.5" d="M6.888 3h9.428c1.36.015 2.653.59 3.58 1.59a5.017 5.017 0 0 1 1.326 3.704v6.528a5.017 5.017 0 0 1-1.326 3.704 4.957 4.957 0 0 1-3.58 1.59H6.888C3.968 20.116 2 17.741 2 14.822V8.294C2 5.375 3.968 3 6.888 3z" clip-rule="evenodd"/></svg>