<svg xmlns="http://www.w3.org/2000/svg" width="30" height="30" fill="none"><path stroke="#fff" stroke-width="2" d="M9.376 17.5c-5.625-3-5.625-4.5-5.625-5s0-2 5.625-5m0 10c-5.625 3-5.626 4-5.626 5m5.626-5c5.623-3 5.623-4.5 5.623-5s0-2-5.623-5m0 0C15 4.5 15 3.5 15 2.5m-5.624 5L6.64 5.93C3.75 4.102 3.75 3.3 3.75 2.5"/><path stroke="#fff" stroke-linecap="round" stroke-width="2" d="M23.75 17.5h-7.5V25h7.5v-7.5z"/><path stroke="#fff" stroke-linejoin="round" stroke-width="2" d="M18.125 25v2.5m3.75-2.5v2.5M18.125 15v2.5m3.75-2.5v2.5m-5.625 1.875h-2.5m2.5 3.75h-2.5m12.5-3.75h-2.5m2.5 3.75h-2.5"/></svg>