<svg xmlns="http://www.w3.org/2000/svg" width="30" height="30" fill="none"><path stroke="#fff" stroke-width="2" d="m15 17.5 6.875 5.625M15 17.5l-6.875 5.625M15 17.5V8.75m-2.01-4.137C13.881 3.204 14.327 2.5 15 2.5c.672 0 1.118.704 2.01 2.113l.642 1.012c.88 1.39 1.32 2.085.986 2.605-.335.52-1.222.52-2.997.52H14.36c-1.775 0-2.662 0-2.997-.52-.335-.52.106-1.215.986-2.605l.641-1.012zm13.55 19.313c.78 1.512 1.17 2.268.846 2.855-.324.588-1.144.612-2.784.661l-1.177.035c-1.618.048-2.427.072-2.712-.49-.285-.563.142-1.339.998-2.89l.618-1.121c.855-1.552 1.283-2.328 1.89-2.35.608-.023.993.723 1.762 2.214l.56 1.086zm-23.08 0c-.78 1.512-1.17 2.268-.846 2.855.324.588 1.144.612 2.784.661l1.177.035c1.618.048 2.427.072 2.712-.49.285-.563-.142-1.339-.998-2.89l-.618-1.121c-.855-1.552-1.283-2.328-1.89-2.35-.608-.023-.993.723-1.762 2.214l-.56 1.086z"/></svg>