<svg xmlns="http://www.w3.org/2000/svg" width="30" height="30" fill="none"><path stroke="#fff" stroke-linejoin="round" stroke-width="2" d="M15 14.375c.62 0 1.195-.248 2.347-.744l.83-.358c2.049-.883 3.073-1.324 3.073-2.023 0-.699-1.024-1.14-3.072-2.023l-.831-.358c-1.152-.496-1.728-.744-2.347-.744-.62 0-1.195.248-2.347.744l-.83.358c-2.049.883-3.073 1.324-3.073 2.023 0 .699 1.024 1.14 3.072 2.023l.831.358c1.152.496 1.728.744 2.347.744zm0 0v7.5"/><path stroke="#fff" stroke-linejoin="round" stroke-width="2" d="M21.25 11.25v7.5c0 .699-1.024 1.14-3.072 2.023l-.831.358c-1.152.496-1.728.744-2.347.744-.62 0-1.195-.248-2.347-.744l-.83-.358c-2.05-.883-3.073-1.325-3.073-2.023v-7.5"/><path stroke="#fff" stroke-linecap="round" stroke-linejoin="round" stroke-width="2" d="M11.43 3.125c-3.321.076-5.26.393-6.586 1.719C3.518 6.169 3.2 8.109 3.125 11.43M18.57 3.125c3.321.076 5.26.393 6.586 1.719 1.326 1.325 1.643 3.265 1.719 6.586M18.57 26.875c3.321-.076 5.26-.393 6.586-1.719 1.326-1.325 1.643-3.265 1.719-6.586M11.43 26.875c-3.321-.076-5.26-.393-6.586-1.719-1.326-1.325-1.643-3.265-1.719-6.586"/></svg>