<svg xmlns="http://www.w3.org/2000/svg" width="30" height="31" fill="none"><path fill="#36D462" d="M16.314 22.063c.83 0 1.547 0 2.12.077.615.082 1.204.268 1.682.746.477.478.664 1.067.747 1.682.052.392.069.852.074 1.37.002.236.004.355.077.427.073.073.19.073.425.073h.795c.666 0 1.205.56 1.205 1.25s-.54 1.25-1.205 1.25H7.77c-.666 0-1.206-.56-1.206-1.25s.54-1.25 1.206-1.25h.795c.235 0 .352 0 .425-.073.073-.072.074-.19.077-.427.005-.518.022-.977.074-1.37.083-.615.27-1.204.747-1.682.478-.477 1.067-.664 1.682-.746.573-.078 1.29-.078 2.12-.078h2.624z"/><path fill="#36D462" d="M16.252 22.063a1.25 1.25 0 1 1-2.5 0v-3.555c0-.39 0-.585-.127-.657-.265-.15-.891.384-1.129.526-.876.524-1.998.848-2.875.203-.872-.642-.908-1.809-.679-2.805l.531-2.317c.031-.15-.031-.393-.14-.503l-1.86-1.876c-.664-.669-1.112-1.574-.819-2.5.295-.93 1.186-1.408 2.117-1.564l2.378-.399a.56.56 0 0 0 .387-.288l1.32-2.663c.426-.854 1.148-1.603 2.143-1.603.997 0 1.717.75 2.139 1.605l1.321 2.665c.072.135.23.249.379.282l2.392.4c.93.157 1.822.634 2.119 1.563.295.928-.155 1.835-.824 2.505l-1.857 1.873c-.11.11-.172.353-.141.503l.532 2.317c.227.996.197 2.166-.677 2.808-.877.645-2.002.316-2.878-.206-.237-.141-.86-.675-1.126-.524-.126.071-.126.267-.126.657v3.552z"/></svg>