<svg xmlns="http://www.w3.org/2000/svg" width="30" height="31" fill="none"><path fill="#1CC3A1" d="M15 15.813c.879 0 1.48.659 1.814 1.333l.986 1.989a.39.39 0 0 0 .131.097l1.78.298c.74.124 1.514.515 1.774 1.332.26.815-.144 1.583-.675 2.115l-1.384 1.395a.375.375 0 0 0-.05.18l.397 1.727c.175.766.179 1.777-.597 2.347-.78.573-1.744.26-2.417-.142l-1.67-.997a.351.351 0 0 0-.179.002l-1.667.995c-.675.404-1.637.712-2.416.14-.774-.57-.775-1.577-.598-2.345l.396-1.727a.376.376 0 0 0-.05-.18l-1.386-1.397c-.528-.532-.93-1.298-.671-2.112.259-.817 1.032-1.209 1.772-1.333l1.776-.297a.403.403 0 0 0 .13-.098l.987-1.99c.336-.675.939-1.332 1.817-1.332zm8.34-13.699c.68.091 1.478.354 2.034 1.116.329.45.454.956.51 1.477.068.632.053 1.271.053 1.905 0 1.673-.117 3.261-1.657 4.29-.463.31-1.007.563-1.374.754l-4.157 2.162c-.792.41-1.44.748-2.002.979-.588.24-1.14.39-1.748.39-.606 0-1.159-.15-1.747-.39-.562-.23-1.21-.568-2.002-.98l-4.158-2.16c-2.346-1.22-3.03-2.452-3.03-5.044 0-.635-.015-1.274.053-1.906.056-.521.18-1.028.51-1.477.556-.762 1.355-1.025 2.033-1.116.484-.066 1.027-.053 1.436-.044 1.634.037 3.271.005 4.905.005.354 0 .53 0 .64.11.11.11.11.287.11.64V6.75a1.25 1.25 0 0 0 2.5 0V2.825c0-.353 0-.53.11-.64.11-.11.287-.11.64-.11 1.635 0 3.272.032 4.906-.005.41-.01.952-.022 1.436.044z"/></svg>