<svg xmlns="http://www.w3.org/2000/svg" width="126" height="37" fill="none"><g clip-path="url(#a)"><path fill="#3A7DFF" d="M33 19.43v-4.784l-15.724 2.108 12.645-9.73-3.395-3.42-9.692 12.708L18.93.5h-4.782l2.019 15.8L6.524 3.604 3.142 7.012 15.8 16.666 0 14.646v4.783l15.812-2.095-12.67 9.68 3.37 3.369 9.654-12.594-2.02 15.724h4.783l-2.095-15.737 9.692 12.607 3.382-3.37-12.632-9.691L33 19.429z"/></g><path fill="#fff" d="M50.474 28.74c-2.16 0-3.99-.45-5.49-1.35-1.5-.92-2.64-2.19-3.42-3.81-.76-1.64-1.14-3.53-1.14-5.67 0-1.62.21-3.09.63-4.41.44-1.32 1.08-2.46 1.92-3.42.86-.98 1.91-1.73 3.15-2.25 1.24-.54 2.67-.81 4.29-.81 1.58 0 2.99.26 4.23.78 1.26.5 2.29 1.24 3.09 2.22.82.98 1.37 2.18 1.65 3.6h-3.87c-.16-.68-.47-1.25-.93-1.71-.44-.46-1-.81-1.68-1.05-.68-.24-1.46-.36-2.34-.36-1.14 0-2.11.2-2.91.6-.8.4-1.45.95-1.95 1.65-.5.68-.87 1.47-1.11 2.37-.22.88-.33 1.82-.33 2.82 0 1.3.21 2.51.63 3.63.44 1.12 1.12 2.02 2.04 2.7.94.66 2.16.99 3.66.99 1.06 0 1.99-.18 2.79-.54.82-.36 1.46-.88 1.92-1.56.48-.7.74-1.56.78-2.58h-6.18v-3.24h9.96v1.38c0 2.06-.36 3.84-1.08 5.34-.72 1.5-1.78 2.66-3.18 3.48-1.38.8-3.09 1.2-5.13 1.2zm11.346-.24V7.29h3.66V28.5h-3.66zm11.247.21c-.74 0-1.44-.1-2.1-.3-.66-.2-1.25-.49-1.77-.87-.52-.4-.94-.89-1.26-1.47-.3-.6-.45-1.3-.45-2.1 0-1.02.2-1.85.6-2.49.4-.66.94-1.16 1.62-1.5.7-.34 1.49-.57 2.37-.69.88-.14 1.8-.21 2.76-.21h3.09c0-.7-.11-1.3-.33-1.8-.22-.52-.57-.93-1.05-1.23-.46-.3-1.06-.45-1.8-.45-.48 0-.93.06-1.35.18-.4.1-.75.27-1.05.51-.28.22-.48.51-.6.87h-3.75c.14-.82.42-1.52.84-2.1.44-.6.97-1.09 1.59-1.47.64-.38 1.34-.66 2.1-.84.76-.2 1.53-.3 2.31-.3 2.3 0 3.97.66 5.01 1.98 1.06 1.32 1.59 3.17 1.59 5.55v8.52h-3.24l-.09-2.04c-.46.68-1.01 1.18-1.65 1.5-.64.32-1.26.52-1.86.6-.6.1-1.11.15-1.53.15zm.72-2.97c.8 0 1.51-.15 2.13-.45.62-.3 1.11-.72 1.47-1.26.38-.54.57-1.16.57-1.86v-.51h-2.88c-.48 0-.96.02-1.44.06-.46.02-.88.1-1.26.24-.38.12-.69.31-.93.57-.22.26-.33.63-.33 1.11 0 .48.12.87.36 1.17.26.3.59.53.99.69.42.16.86.24 1.32.24zm16.204 2.97c-.76 0-1.52-.08-2.28-.24-.74-.16-1.44-.42-2.1-.78-.66-.38-1.21-.89-1.65-1.53-.44-.64-.73-1.44-.87-2.4h3.69c.16.44.41.8.75 1.08.36.26.77.46 1.23.6.48.12.95.18 1.41.18.28 0 .58-.02.9-.06.34-.04.65-.12.93-.24.3-.12.54-.29.72-.51.18-.24.27-.55.27-.93 0-.36-.1-.64-.3-.84-.2-.22-.47-.39-.81-.51-.34-.14-.75-.25-1.23-.33-.86-.18-1.78-.37-2.76-.57-.98-.22-1.83-.56-2.55-1.02-.3-.18-.56-.39-.78-.63-.22-.24-.41-.5-.57-.78-.14-.3-.25-.62-.33-.96-.06-.34-.09-.71-.09-1.11 0-.84.17-1.55.51-2.13.36-.6.83-1.08 1.41-1.44.6-.38 1.28-.66 2.04-.84.76-.18 1.54-.27 2.34-.27 1.08 0 2.06.17 2.94.51.88.34 1.61.86 2.19 1.56.6.7.96 1.59 1.08 2.67h-3.48c-.1-.5-.41-.9-.93-1.2-.5-.3-1.14-.45-1.92-.45-.28 0-.57.03-.87.09-.3.04-.59.12-.87.24-.26.1-.48.26-.66.48-.16.22-.24.49-.24.81 0 .3.07.56.21.78.16.22.39.41.69.57.32.14.69.26 1.11.36.68.14 1.39.28 2.13.42.74.14 1.38.28 1.92.42.64.18 1.22.44 1.74.78.52.32.92.75 1.2 1.29.3.52.45 1.19.45 2.01 0 .96-.2 1.76-.6 2.4-.38.64-.89 1.14-1.53 1.5-.64.36-1.35.62-2.13.78-.78.16-1.55.24-2.31.24zm14.562-.03c-1.74 0-3.01-.48-3.81-1.44-.8-.96-1.2-2.29-1.2-3.99v-7.32h-2.43v-3.24h2.43V8.25h3.66v4.44h4.8v3.24h-4.8v6.63c0 .52.06.99.18 1.41.12.42.34.75.66.99s.76.37 1.32.39c.48 0 .89-.08 1.23-.24.34-.16.62-.34.84-.54l1.23 2.79c-.38.32-.81.58-1.29.78a6 6 0 0 1-1.41.42c-.48.08-.95.12-1.41.12zm12.323.03c-1.62 0-3.02-.33-4.2-.99-1.16-.66-2.06-1.6-2.7-2.82-.62-1.22-.93-2.65-.93-4.29 0-1.66.32-3.09.96-4.29a7 7 0 0 1 2.7-2.85c1.16-.68 2.55-1.02 4.17-1.02 1.6 0 2.98.34 4.14 1.02 1.16.68 2.05 1.64 2.67 2.88.62 1.22.93 2.66.93 4.32 0 1.62-.31 3.04-.93 4.26-.6 1.2-1.48 2.13-2.64 2.79-1.16.66-2.55.99-4.17.99zm-.03-3.33c1 0 1.8-.22 2.4-.66.62-.44 1.07-1.02 1.35-1.74s.42-1.5.42-2.34c0-.84-.14-1.63-.42-2.37-.28-.74-.73-1.33-1.35-1.77-.6-.46-1.4-.69-2.4-.69s-1.81.23-2.43.69c-.62.44-1.07 1.03-1.35 1.77-.28.72-.42 1.51-.42 2.37 0 .84.14 1.63.42 2.37.3.72.75 1.3 1.35 1.74.62.42 1.43.63 2.43.63z"/><defs><clipPath id="a"><path fill="#fff" d="M0 .5h33v33H0z"/></clipPath></defs></svg>