<svg xmlns="http://www.w3.org/2000/svg" width="60" height="60" fill="none"><g clip-path="url(#a)"><path fill="#FF4C46" d="m59.32 8.29-19.398 1.734c-3.347-1.948-6.675-2.716-10.2-2.716-.93 0-1.88.089-2.828.25L6.674.053C5.868-.25 5.278.822 5.958 1.34l12.454 9.613c-2.63 1.643-5.1 3.752-7.247 6.2C7.425 21.405 2.773 33.109.5 39.219a7.7 7.7 0 0 0 1.27 7.648C5.887 51.87 14.459 60 30.92 60c15.103 0 22.727-6.754 26.305-11.722 1.987-2.751 2.56-6.253 1.593-9.505-1.646-5.486-5.064-14.991-10.63-21.513a22.958 22.958 0 0 0-.59-.68l12.079-7.146c.59-.322.304-1.197-.358-1.144z"/><path fill="#fff" d="M39.1 43.597a10.39 10.39 0 0 1-8.304-.571c-.179-.09-.358.143-.215.286 1.146 1.233 3.186 3.377 4.42 4.43a.64.64 0 0 0 .877-.053l3.436-3.788c.125-.143-.018-.375-.215-.304z"/><path fill="#fff" d="M52.484 27.838c-1.843-3.967-4.581-7.683-8.733-8.166-.751-.089-1.503.09-2.165.465l-4.527 2.68a3.194 3.194 0 0 1-3.58-.232l-3.936-3.038c-1.324-1.018-2.827-1.769-4.456-2.144-6.764-1.59-11.345 1.948-14.798 8.595-3.31 6.343-1.468 15.455 6.692 17.635 8.607 2.287 14.298-7.254 16.57-10.435.43-.607 1.343-.607 1.79 0 3.525 4.789 8.285 9.917 13.367 8.898 6.639-1.34 5.87-9.773 3.776-14.258zm-24.891 5.056c-1.647 1.108-3.776.858-5.029-1.018-1.27-1.876-.698-3.93.949-5.039 1.646-1.107 3.775-.857 5.028 1.019 1.27 1.876.698 3.93-.948 5.038zm17.59.34c-1.646 1.108-3.776.858-5.028-1.019-1.27-1.876-.698-3.93.948-5.038s3.776-.858 5.028 1.018c1.27 1.858.716 3.913-.948 5.039z"/><path fill="#fff" d="M35.215 35.665c-.34-.393-.948-.375-1.288.018l-3.615 4.288a.477.477 0 0 0 .072.661c.823.59 2.88 1.894 4.867 1.894 1.843 0 3.508-.715 4.313-1.126.268-.125.322-.482.125-.696l-4.474-5.04z"/></g><defs><clipPath id="a"><path fill="#fff" d="M0 0h60v60H0z"/></clipPath></defs></svg>