<svg xmlns="http://www.w3.org/2000/svg" width="58" height="60" fill="none"><g clip-path="url(#a)"><path fill="#FF7A59" fill-rule="evenodd" d="M42.03 43.237c-4.481 0-8.114-3.596-8.114-8.03 0-4.435 3.633-8.03 8.115-8.03 4.481 0 8.114 3.595 8.114 8.03 0 4.434-3.633 8.03-8.114 8.03zm2.43-23.49v-7.143c1.884-.88 3.204-2.767 3.204-4.956v-.165c0-3.02-2.498-5.493-5.551-5.493h-.166c-3.053 0-5.55 2.472-5.55 5.493v.165c0 2.19 1.32 4.076 3.203 4.957v7.142a15.82 15.82 0 0 0-7.482 3.26L12.298 7.75a6.035 6.035 0 0 0 .224-1.547C12.525 2.783 9.727.005 6.27 0 2.812-.004.004 2.766 0 6.188c-.004 3.422 2.794 6.2 6.253 6.203a6.242 6.242 0 0 0 3.084-.83l19.495 15.01a15.471 15.471 0 0 0-2.629 8.636c0 3.343 1.067 6.436 2.87 8.98l-5.928 5.867a5.118 5.118 0 0 0-1.47-.236c-2.84 0-5.145 2.279-5.145 5.09 0 2.813 2.304 5.092 5.145 5.092 2.842 0 5.145-2.28 5.145-5.092 0-.508-.098-.99-.239-1.453l5.865-5.804a15.85 15.85 0 0 0 9.585 3.218c8.74 0 15.826-7.012 15.826-15.662 0-7.83-5.813-14.3-13.397-15.46z" clip-rule="evenodd"/></g><defs><clipPath id="a"><path fill="#fff" d="M0 0h57.857v60H0z"/></clipPath></defs></svg>