<svg xmlns="http://www.w3.org/2000/svg" width="49" height="60" fill="none"><g fill-rule="evenodd" clip-path="url(#a)" clip-rule="evenodd"><path fill="#5ACC5A" d="M20.617.04C9.232.04 0 9.27 0 20.656v37.936c0 1.214 1.471 1.822 2.33.963l11.2-11.195h14.175c11.386 0 20.617-9.23 20.617-20.617V.039H20.617z"/><path fill="#0EA84C" d="M13.53 48.361H3.22l6.441 3.867 3.869-3.867z"/><path fill="#2CB757" d="M48.322.04H20.617v27.704L48.322.04z"/><path fill="#0EA84C" d="M20.617.04C9.232.04 0 9.27 0 20.656V48.36l20.617-20.617V.039z"/><path fill="#75DD66" d="M48.322.04 20.617 27.743h27.705V.04z"/><path fill="#5ACC5A" d="M20.617 27.744 0 48.362h27.705c11.386 0 20.617-9.231 20.617-20.618H20.617z"/></g><defs><clipPath id="a"><path fill="#fff" d="M0 0h48.75v60H0z"/></clipPath></defs></svg>