<svg xmlns="http://www.w3.org/2000/svg" width="150" height="41" fill="none"><g clip-path="url(#a)"><path fill="#201515" d="m35.224 27.853-.02-.067 13.337-12.21V9.693H27.143v5.883h12.781l.021.057-13.207 12.22v5.883h22.017v-5.883h-13.53zM61.89 9.133c-2.469 0-4.48.372-6.035 1.117a7.92 7.92 0 0 0-3.502 3.068 11.172 11.172 0 0 0-1.469 4.438l6.492.913c.235-1.383.705-2.364 1.41-2.942a4.302 4.302 0 0 1 2.79-.863c1.317 0 2.273.353 2.867 1.057.589.705.888 1.68.888 2.966v.641h-6.242c-3.178 0-5.46.705-6.849 2.114-1.388 1.41-2.08 3.27-2.078 5.58 0 2.367.693 4.129 2.078 5.284 1.386 1.156 3.129 1.73 5.228 1.723 2.605 0 4.608-.896 6.01-2.688a9.991 9.991 0 0 0 1.737-3.702h.236l.895 5.883h5.883V18.823c0-3.079-.812-5.464-2.435-7.155-1.623-1.69-4.257-2.536-7.905-2.536zm2.056 18.364c-.933.778-2.155 1.166-3.677 1.166-1.255 0-2.126-.22-2.614-.659a2.154 2.154 0 0 1-.736-1.673 2.196 2.196 0 0 1 .609-1.624 2.262 2.262 0 0 1 1.673-.61h6.14v.406a3.736 3.736 0 0 1-1.394 2.994zm43.852-17.804h-6.95V33.74h6.95V9.693zm41.034 0c-1.963 0-3.511.693-4.643 2.079-.812.995-1.43 2.467-1.853 4.414h-.204l-.909-6.493h-5.936v24.043h6.951v-12.33c0-1.554.364-2.746 1.092-3.575.728-.83 2.071-1.244 4.03-1.244h2.638V9.693h-1.166zm-20.435.787c-1.623-.966-3.67-1.447-6.141-1.445-3.888 0-6.932 1.107-9.13 3.322-2.199 2.215-3.298 5.268-3.298 9.16a14.603 14.603 0 0 0 1.497 6.795 10.795 10.795 0 0 0 4.263 4.491c1.841 1.064 4.031 1.597 6.57 1.6 2.196 0 4.03-.339 5.502-1.015a8.846 8.846 0 0 0 3.502-2.765 12.05 12.05 0 0 0 1.902-3.932l-5.988-1.677a5.549 5.549 0 0 1-1.409 2.438c-.677.676-1.81 1.015-3.4 1.015-1.89 0-3.299-.542-4.227-1.624-.673-.782-1.096-1.9-1.283-3.347h16.399a17.82 17.82 0 0 0 .102-1.701v-1.498a13.35 13.35 0 0 0-1.215-5.833 9.134 9.134 0 0 0-3.646-3.985zm-6.341 4.287c2.818 0 4.416 1.386 4.794 4.16h-9.969a5.72 5.72 0 0 1 1.117-2.54c.913-1.082 2.266-1.623 4.058-1.62zM104.398.002a3.908 3.908 0 0 0-2.843 1.092 3.774 3.774 0 0 0-1.117 2.818 3.824 3.824 0 0 0 3.96 3.956 3.757 3.757 0 0 0 2.818-1.116 3.88 3.88 0 0 0 1.088-2.84 3.732 3.732 0 0 0-1.089-2.814 3.74 3.74 0 0 0-2.814-1.092l-.003-.004zM90.042 9.035c-2.367 0-4.27.743-5.707 2.23-1.064 1.101-1.844 2.745-2.342 4.932h-.222l-.91-6.493h-5.935v30.944h6.95V27.903h.254c.212.85.51 1.676.888 2.466a7 7 0 0 0 2.765 3.093 8.124 8.124 0 0 0 4.107.99c2.91 0 5.126-1.133 6.648-3.4 1.522-2.266 2.283-5.428 2.283-9.486 0-3.92-.736-6.988-2.21-9.205-1.472-2.217-3.662-3.326-6.57-3.326zm.705 17.424c-.81 1.174-2.079 1.761-3.805 1.761a4.483 4.483 0 0 1-3.727-1.701c-.9-1.13-1.348-2.677-1.346-4.64v-.458c0-1.994.449-3.52 1.346-4.58.897-1.059 2.14-1.582 3.727-1.57 1.757 0 3.033.557 3.83 1.673.795 1.115 1.194 2.671 1.194 4.667.004 2.065-.4 3.68-1.212 4.848h-.007z"/><path fill="#FF4F00" d="M24.046 27.854H0v5.89h24.046v-5.89z"/></g><defs><clipPath id="a"><path fill="#fff" d="M0 0h150v40.8H0z"/></clipPath></defs></svg>