<svg xmlns="http://www.w3.org/2000/svg" width="196" height="46" fill="none"><path fill="#C6C6C6" d="M31.387 20.5a5.703 5.703 0 0 0-1.19 2.067 6.103 6.103 0 0 0-.274 2.424l-.025-.027a7.251 7.251 0 0 1-.349 2.848 6.77 6.77 0 0 1-1.411 2.422 6.046 6.046 0 0 1-2.212 1.545 5.593 5.593 0 0 1-2.6.382l.025.028a4.784 4.784 0 0 0-3.034.72c-.92.576-1.654 1.448-2.104 2.499a6.127 6.127 0 0 0-.411 3.37 5.838 5.838 0 0 0 1.433 3.016 5.014 5.014 0 0 0 2.755 1.566c1.043.2 2.118.04 3.076-.453.959-.494 1.755-1.3 2.28-2.307A6.086 6.086 0 0 0 28 37.276l.027.028a7.247 7.247 0 0 1 .348-2.848 6.77 6.77 0 0 1 1.412-2.422 6.045 6.045 0 0 1 2.211-1.546 5.595 5.595 0 0 1 2.6-.382l-.026-.027a4.744 4.744 0 0 0 2.521-.45 5.238 5.238 0 0 0 2.012-1.724 5.915 5.915 0 0 0 1.006-2.572 6.135 6.135 0 0 0-.249-2.784 5.674 5.674 0 0 0-1.442-2.31 4.99 4.99 0 0 0-2.28-1.263 4.71 4.71 0 0 0-2.553.095 5.07 5.07 0 0 0-2.196 1.43h-.004zM21.06 28.573l-.027-.028a4.673 4.673 0 0 0 2.216-.295 5.048 5.048 0 0 0 1.887-1.306 5.662 5.662 0 0 0 1.194-2.065 6.063 6.063 0 0 0 .27-2.427l.027.028a7.251 7.251 0 0 1 .349-2.849 6.771 6.771 0 0 1 1.411-2.422 6.047 6.047 0 0 1 2.212-1.545 5.595 5.595 0 0 1 2.6-.382l-.027-.027a4.783 4.783 0 0 0 3.035-.718c.92-.575 1.656-1.448 2.107-2.498.45-1.05.594-2.227.412-3.37a5.836 5.836 0 0 0-1.431-3.017 5.015 5.015 0 0 0-2.755-1.568 4.747 4.747 0 0 0-3.077.452c-.959.494-1.755 1.3-2.28 2.307a6.085 6.085 0 0 0-.656 3.324l-.025-.03a7.25 7.25 0 0 1-.348 2.849 6.768 6.768 0 0 1-1.411 2.423 6.045 6.045 0 0 1-2.212 1.545 5.594 5.594 0 0 1-2.6.381l.025.03a4.673 4.673 0 0 0-2.216.294 5.044 5.044 0 0 0-1.887 1.306 5.66 5.66 0 0 0-1.194 2.066 6.065 6.065 0 0 0-.271 2.427l-.025-.028a7.251 7.251 0 0 1-.35 2.848 6.771 6.771 0 0 1-1.41 2.422 6.048 6.048 0 0 1-2.212 1.546 5.596 5.596 0 0 1-2.6.382l.025.027a4.783 4.783 0 0 0-3.035.718c-.92.575-1.655 1.447-2.106 2.497a6.127 6.127 0 0 0-.413 3.37 5.836 5.836 0 0 0 1.432 3.018 5.014 5.014 0 0 0 2.755 1.568 4.75 4.75 0 0 0 3.077-.452c.959-.494 1.755-1.3 2.28-2.307a6.085 6.085 0 0 0 .655-3.324l.027.027a7.247 7.247 0 0 1 .348-2.848 6.767 6.767 0 0 1 1.412-2.422 6.044 6.044 0 0 1 2.211-1.545 5.595 5.595 0 0 1 2.6-.382zm-9.384-3.076c.53-.585.937-1.29 1.19-2.067a6.097 6.097 0 0 0 .273-2.424l.027.027a7.25 7.25 0 0 1 .348-2.849 6.769 6.769 0 0 1 1.413-2.422 6.045 6.045 0 0 1 2.212-1.546 5.595 5.595 0 0 1 2.601-.38l-.026-.028a4.783 4.783 0 0 0 3.033-.718c.92-.575 1.655-1.447 2.106-2.497.45-1.05.594-2.226.412-3.369a5.835 5.835 0 0 0-1.431-3.016 5.014 5.014 0 0 0-2.754-1.567 4.746 4.746 0 0 0-3.076.451c-.959.494-1.755 1.299-2.28 2.306a6.084 6.084 0 0 0-.655 3.323l-.026-.028a7.247 7.247 0 0 1-.348 2.848 6.768 6.768 0 0 1-1.411 2.422 6.044 6.044 0 0 1-2.212 1.546 5.595 5.595 0 0 1-2.6.381l.025.028a4.742 4.742 0 0 0-2.521.45 5.238 5.238 0 0 0-2.012 1.725 5.916 5.916 0 0 0-1.005 2.572 6.134 6.134 0 0 0 .25 2.784c.295.89.791 1.684 1.442 2.309a4.99 4.99 0 0 0 2.28 1.263 4.711 4.711 0 0 0 2.552-.095 5.07 5.07 0 0 0 2.196-1.43h-.003zm43.369-15.296h4.158v22.161h-4.158v-22.16zm6.512 14.572a8.606 8.606 0 0 1 1.224-4.479c.803-1.327 1.948-2.363 3.29-2.977a6.755 6.755 0 0 1 4.247-.471c1.427.307 2.738 1.07 3.768 2.194 1.03 1.124 1.733 2.558 2.02 4.12a8.76 8.76 0 0 1-.414 4.652c-.555 1.472-1.496 2.73-2.705 3.616a6.9 6.9 0 0 1-4.084 1.358 6.713 6.713 0 0 1-2.818-.585 7.25 7.25 0 0 1-2.39-1.733 8.043 8.043 0 0 1-1.593-2.612 8.621 8.621 0 0 1-.545-3.083zm10.533 0a3.722 3.722 0 0 0-.58-1.914 3.252 3.252 0 0 0-1.448-1.244 2.928 2.928 0 0 0-1.836-.159 3.126 3.126 0 0 0-1.61.978 3.615 3.615 0 0 0-.848 1.79 3.801 3.801 0 0 0 .197 2.005 3.44 3.44 0 0 0 1.175 1.552 2.997 2.997 0 0 0 1.763.581c.429.013.856-.072 1.254-.25a3.11 3.11 0 0 0 1.058-.78c.3-.337.532-.738.682-1.179a3.7 3.7 0 0 0 .193-1.38zm20.732-7.589v14.413c0 5.1-3.631 7.256-7.317 7.256a6.568 6.568 0 0 1-3.757-.83c-1.158-.649-2.131-1.635-2.812-2.85l3.547-2.246a3.355 3.355 0 0 0 1.307 1.497 2.94 2.94 0 0 0 1.853.415c.41.062.828.023 1.223-.116a2.725 2.725 0 0 0 1.055-.684c.301-.312.534-.694.682-1.117.148-.424.206-.879.172-1.33v-1.389a5.001 5.001 0 0 1-1.81 1.514c-.702.343-1.469.5-2.237.46-1.83-.063-3.563-.903-4.837-2.342-1.273-1.44-1.985-3.365-1.985-5.369 0-2.003.712-3.928 1.985-5.367 1.273-1.44 3.008-2.28 4.837-2.343a4.552 4.552 0 0 1 2.238.46 5 5 0 0 1 1.809 1.514v-1.55l4.047.004zm-4.046 7.285a3.953 3.953 0 0 0-.497-2.085 3.476 3.476 0 0 0-1.478-1.423 3.095 3.095 0 0 0-1.953-.272 3.264 3.264 0 0 0-1.756.972 3.787 3.787 0 0 0-.958 1.883 4.008 4.008 0 0 0 .17 2.147c.25.682.681 1.265 1.237 1.676.556.41 1.212.63 1.882.628.437.034.876-.033 1.287-.197.412-.163.788-.42 1.104-.751.316-.333.565-.734.73-1.178.166-.444.245-.92.232-1.4zm6.398.304a8.605 8.605 0 0 1 1.224-4.479c.803-1.327 1.949-2.363 3.29-2.977a6.755 6.755 0 0 1 4.247-.471c1.427.307 2.738 1.07 3.769 2.194 1.03 1.124 1.732 2.558 2.018 4.12a8.76 8.76 0 0 1-.413 4.652c-.555 1.472-1.496 2.73-2.705 3.616a6.9 6.9 0 0 1-4.084 1.358 6.714 6.714 0 0 1-2.817-.585 7.25 7.25 0 0 1-2.392-1.733 8.044 8.044 0 0 1-1.592-2.612 8.62 8.62 0 0 1-.545-3.083zm10.534 0a3.726 3.726 0 0 0-.58-1.914 3.252 3.252 0 0 0-1.449-1.244 2.93 2.93 0 0 0-1.836-.159 3.132 3.132 0 0 0-1.61.978 3.62 3.62 0 0 0-.848 1.79 3.8 3.8 0 0 0 .197 2.005 3.443 3.443 0 0 0 1.175 1.552 3 3 0 0 0 1.763.581 2.87 2.87 0 0 0 1.254-.25 3.116 3.116 0 0 0 1.058-.78 3.45 3.45 0 0 0 .682-1.179c.151-.44.217-.91.194-1.38zm6.097-11.658c0-.54.146-1.069.42-1.518.274-.45.664-.8 1.12-1.006a2.295 2.295 0 0 1 1.441-.156c.484.106.929.366 1.278.748s.586.87.682 1.4c.097.53.047 1.079-.142 1.578-.188.5-.508.926-.919 1.226-.41.3-.892.46-1.386.46a2.415 2.415 0 0 1-1.756-.808 2.891 2.891 0 0 1-.738-1.924zm.42 4.068h4.159v15.18h-4.165l.006-15.18zm22.112 7.59a8.28 8.28 0 0 1-.393 2.954 7.787 7.787 0 0 1-1.398 2.562 7.043 7.043 0 0 1-2.189 1.777 6.477 6.477 0 0 1-2.645.72 4.798 4.798 0 0 1-2.254-.416 5.216 5.216 0 0 1-1.874-1.436v7.5h-4.158v-21.25h4.158v1.425a5.229 5.229 0 0 1 1.874-1.434 4.799 4.799 0 0 1 2.254-.416 6.475 6.475 0 0 1 2.646.72 7.051 7.051 0 0 1 2.189 1.777 7.788 7.788 0 0 1 1.398 2.563 8.28 8.28 0 0 1 .392 2.954zm-4.158 0a3.84 3.84 0 0 0-.596-1.982 3.36 3.36 0 0 0-1.496-1.29 3.03 3.03 0 0 0-1.899-.169 3.23 3.23 0 0 0-1.668 1.01 3.734 3.734 0 0 0-.879 1.85c-.121.699-.05 1.42.202 2.075a3.56 3.56 0 0 0 1.215 1.607 3.098 3.098 0 0 0 1.824.602c.446.022.89-.06 1.305-.24a3.15 3.15 0 0 0 1.101-.802 3.53 3.53 0 0 0 .705-1.226c.154-.459.217-.948.186-1.435zm16.99 3.035c0 3.492-2.771 4.98-5.764 4.98a5.633 5.633 0 0 1-3.486-.805c-1.063-.644-1.924-1.622-2.474-2.808l3.603-2.247c.145.548.458 1.025.886 1.351.428.326.946.482 1.466.44.996 0 1.496-.334 1.496-.94 0-1.671-6.819-.79-6.819-6.041 0-3.31 2.551-4.979 5.433-4.979a5.64 5.64 0 0 1 3.107.815 6.355 6.355 0 0 1 2.297 2.433l-3.547 2.094a2.172 2.172 0 0 0-.745-.973 1.89 1.89 0 0 0-1.112-.362c-.721 0-1.165.306-1.165.85.006 1.73 6.824.576 6.824 6.192zm15.19-10.622v15.18h-4.158v-1.428a4.813 4.813 0 0 1-1.778 1.448 4.37 4.37 0 0 1-2.184.404c-2.8 0-5.18-2.185-5.18-6.286v-9.319h4.158v8.652a2.71 2.71 0 0 0 .11 1.07c.107.345.282.66.511.922.23.262.508.467.818.6.308.132.64.19.971.168 1.525 0 2.578-.971 2.578-3.127v-8.28l4.154-.005zm23.842 5.856v9.32h-4.158v-8.926c0-1.517-.665-2.488-1.995-2.488-1.386 0-2.163 1.063-2.163 2.853v8.561h-4.157v-8.926c0-1.517-.665-2.488-1.996-2.488-1.386 0-2.162 1.063-2.162 2.853v8.561h-4.158v-15.18h4.158v1.395a4.347 4.347 0 0 1 1.645-1.428 3.933 3.933 0 0 1 2.069-.392 3.827 3.827 0 0 1 2.057.478c.636.35 1.177.876 1.574 1.525a4.672 4.672 0 0 1 1.773-1.569 4.22 4.22 0 0 1 2.246-.434c3.182.002 5.267 2.49 5.267 6.285zm3.515-5.953c1.704 0 3.086-1.513 3.086-3.38 0-1.866-1.382-3.379-3.086-3.379-1.703 0-3.085 1.513-3.085 3.38 0 1.866 1.382 3.379 3.085 3.379z"/></svg>