<svg xmlns="http://www.w3.org/2000/svg" width="150" height="46" fill="none"><path fill="#C6C6C6" d="M14.153 37.949c7.246 0 13.12-6.693 13.12-14.95V12.534c0-1.19-.415-2.33-1.153-3.172-.738-.84-1.74-1.313-2.783-1.313h-8.528v6.558c0 1.497.08 3.047.769 4.32a7.142 7.142 0 0 0 1.934 2.292 6.122 6.122 0 0 0 2.595 1.168l.25.046c.104.04.194.117.258.218a.656.656 0 0 1 .098.348.656.656 0 0 1-.098.348.537.537 0 0 1-.257.218l-.251.046c-1.357.252-2.61.984-3.581 2.092-.972 1.107-1.614 2.534-1.836 4.08l-.04.286a.598.598 0 0 1-.192.294.483.483 0 0 1-.305.111.483.483 0 0 1-.305-.111.598.598 0 0 1-.192-.294l-.04-.286a8.107 8.107 0 0 0-1.025-2.957 7.038 7.038 0 0 0-2.01-2.204c-1.118-.785-2.479-.876-3.792-.876h-5.74c.343 7.91 6.078 14.203 13.104 14.203z"/><path fill="#C6C6C6" d="M0 22.222h5.982c1.365 0 2.78-.091 3.941-.874a7.187 7.187 0 0 0 2.232-2.443c.716-1.27.8-2.818.8-4.311V8.049H4.09c-1.085 0-2.126.471-2.893 1.31C.431 10.2 0 11.339 0 12.525v9.698zM31.674 9.54c0 .395-.144.775-.4 1.055-.255.28-.602.437-.964.437a1.31 1.31 0 0 1-.964-.437c-.256-.28-.4-.66-.4-1.055 0-.396.144-.775.4-1.055.256-.28.603-.437.964-.437.362 0 .709.157.965.437.255.28.399.659.399 1.055zm112.674 7.537c3.812 0 5.652 2.913 5.652 6.287V29.7h-3.989v-5.585c0-1.529-.51-2.79-1.973-2.79-1.462 0-1.95 1.261-1.95 2.79V29.7h-3.989v-5.585c0-1.529-.488-2.79-1.951-2.79-1.462 0-1.972 1.261-1.972 2.79V29.7h-3.989v-6.337c0-3.374 1.839-6.287 5.651-6.287 2.084 0 3.59.898 4.278 2.379.731-1.48 2.327-2.38 4.232-2.38v.002zm-21.33 8.74c1.286 0 1.84-1.288 1.84-2.817v-5.438h3.989v5.972c0 3.568-1.906 6.53-5.829 6.53s-5.828-2.961-5.828-6.53v-5.972h3.989V23c0 1.529.554 2.816 1.839 2.816zm-11.694 4.271c-2.504 0-4.122-.946-5.076-2.791l2.882-1.772c.399.776.997 1.165 1.994 1.165.82 0 1.197-.316 1.197-.704 0-1.481-5.851.024-5.851-4.685 0-2.282 1.773-4.127 4.787-4.127 2.637 0 4.078 1.407 4.721 2.767l-2.881 1.796c-.244-.728-.998-1.165-1.751-1.165-.576 0-.887.267-.887.631 0 1.506 5.851.122 5.851 4.686 0 2.549-2.283 4.2-4.986 4.2zm-13.938 5.196h-3.99V23.608c0-3.715 2.55-6.41 6.096-6.41 3.457 0 6.094 2.89 6.094 6.41 0 3.884-2.349 6.457-5.873 6.457-.82 0-1.64-.267-2.327-.68v5.9zm2.106-9.322c1.263 0 2.105-1.069 2.105-2.331 0-1.286-.842-2.33-2.105-2.33-1.264 0-2.106 1.044-2.106 2.33 0 1.262.842 2.33 2.106 2.33zM89.4 16.277c-1.308 0-2.394-1.19-2.394-2.622 0-1.433 1.086-2.622 2.394-2.622 1.307 0 2.394 1.19 2.394 2.622s-1.087 2.622-2.394 2.622zm-1.995 1.286h3.99V29.7h-3.99V17.563zm-7.654 12.502c-3.457 0-6.094-2.913-6.094-6.457 0-3.52 2.637-6.433 6.094-6.433 3.458 0 6.095 2.913 6.095 6.433 0 3.544-2.637 6.457-6.095 6.457zm0-4.102c1.264 0 2.106-1.069 2.106-2.331 0-1.286-.842-2.355-2.106-2.355-1.263 0-2.105 1.069-2.105 2.355 0 1.262.842 2.33 2.105 2.33zm-13.627 9.686c-2.748 0-4.743-1.335-5.762-3.715l3.302-1.942c.354.826 1.02 1.676 2.393 1.676 1.441 0 2.394-.996 2.505-2.744-.532.51-1.375.898-2.637.898-3.082 0-5.564-2.597-5.564-6.239 0-3.52 2.638-6.384 6.095-6.384 3.547 0 6.095 2.695 6.095 6.409v4.807c0 4.37-2.77 7.234-6.427 7.234zm.266-9.929c1.196 0 2.105-.899 2.105-2.234 0-1.31-.908-2.185-2.105-2.185-1.175 0-2.106.875-2.106 2.186 0 1.335.93 2.233 2.106 2.233zm-12.795 4.345c-3.458 0-6.096-2.913-6.096-6.457 0-3.52 2.638-6.433 6.096-6.433 3.457 0 6.095 2.913 6.095 6.433 0 3.544-2.638 6.457-6.095 6.457zm0-4.102c1.263 0 2.105-1.069 2.105-2.331 0-1.286-.842-2.355-2.105-2.355-1.264 0-2.106 1.069-2.106 2.355 0 1.262.842 2.33 2.106 2.33zm-13.36-12.648v12.26h6.605V29.7h-7.16c-2.525 0-3.545-1.456-3.545-3.763V13.315h4.1z"/></svg>