<svg xmlns="http://www.w3.org/2000/svg" width="167" height="46" fill="none"><path fill="#C6C6C6" d="M92.856 30.549h3.938V15.852h-3.938v14.697zm0-16.99h3.938v-3.494h-3.938v3.495zm5.91 22.379h3.69v-6.662h.054c.787 1.297 2.063 2.152 4.016 2.152 3.582 0 6.025-3.095 6.025-7.987 0-4.716-2.361-7.988-6.052-7.988-1.899 0-3.202.973-4.097 2.3h-.082v-1.887h-3.554v20.072zm6.973-7.84c-2.198 0-3.364-1.798-3.364-4.54 0-2.711.922-4.863 3.229-4.863 2.28 0 3.202 2.005 3.202 4.863 0 2.86-1.194 4.54-3.067 4.54zm14.015 3.527c3.317 0 5.597-1.85 5.597-4.923 0-3.58-2.461-4.297-4.69-4.834-1.892-.447-3.654-.567-3.654-1.88 0-1.104.907-1.7 2.28-1.7 1.504 0 2.411.596 2.566 2.238h3.187c-.259-3.074-2.203-5.073-5.7-5.073-3.033 0-5.416 1.582-5.416 4.893 0 3.342 2.332 4.088 4.716 4.625 1.814.418 3.498.567 3.498 2.03 0 1.073-.881 1.76-2.436 1.76-1.581 0-2.669-.776-2.902-2.537h-3.265c.207 3.253 2.358 5.401 6.219 5.401zm19.382-.397V16.535h-3.501v8.478c0 1.947-1.004 3.322-2.651 3.322-1.493 0-2.188-.945-2.188-2.663v-9.137h-3.476v9.795c0 3.208 1.648 5.299 4.583 5.299 1.854 0 2.883-.773 3.784-2.12h.077v1.719h3.372zm1.969-.681h3.572v-8.535c0-1.948.971-3.208 2.416-3.208 1.312 0 2.074.86 2.074 2.52v9.223h3.571v-8.535c0-1.948.919-3.208 2.415-3.208 1.314 0 2.075.86 2.075 2.52v9.223h3.571v-9.881c0-3.208-1.602-5.213-4.438-5.213-1.706 0-3.125.974-4.044 2.578h-.052c-.656-1.547-2.022-2.578-3.729-2.578-1.864 0-3.176 1.031-3.912 2.377h-.078v-1.976h-3.441v14.693zM.297 30.549H3.25V10.065H.297v20.484zm11.814 1.076c4.09 0 6.893-3.52 6.893-8.086 0-4.565-2.803-8.086-6.893-8.086-4.089 0-6.892 3.52-6.892 8.086 0 4.565 2.803 8.086 6.892 8.086zm0-3.103c-2.16 0-3.343-2-3.343-4.983 0-2.984 1.183-5.013 3.343-5.013 2.135 0 3.344 2.03 3.344 5.013 0 2.984-1.209 4.983-3.344 4.983zm15.329 7.416c1.957 0 3.657-.526 4.764-1.693.979-1.021 1.571-2.451 1.571-4.552V15.862h-3.374v1.575h-.051c-.799-1.254-2.01-1.984-3.658-1.984-3.348 0-5.717 2.86-5.717 7.324 0 4.523 2.884 7.15 5.82 7.15 1.675 0 2.68-.76 3.452-1.751h.077v1.634c0 2.042-.953 3.122-2.936 3.122-1.623 0-2.37-.73-2.653-1.663h-3.477c.36 2.918 2.576 4.669 6.181 4.669zm-.052-9.192c-1.803 0-2.988-1.488-2.988-4.027 0-2.51 1.185-4.085 2.962-4.085 2.112 0 3.142 1.867 3.142 4.056 0 2.217-.901 4.056-3.116 4.056zm14.757 4.879c4.381 0 7.385-3.52 7.385-8.086 0-4.565-3.004-8.086-7.385-8.086-4.382 0-7.385 3.52-7.385 8.086 0 4.565 3.003 8.086 7.385 8.086zm0-3.103c-2.315 0-3.583-2-3.583-4.983 0-2.984 1.268-5.013 3.583-5.013 2.287 0 3.582 2.03 3.582 5.013 0 2.984-1.295 4.983-3.582 4.983zM162.766 13.84c0-.893.441-1.617.984-1.617h1.969c.544 0 .985.724.985 1.617s-.441 1.617-.985 1.617h-1.969c-.543 0-.984-.724-.984-1.617z"/><path fill="#C6C6C6" fill-rule="evenodd" d="M70.7 5.752c8.429 0 15.262 7.723 15.262 17.25 0 9.527-6.833 17.25-15.262 17.25-8.43 0-15.263-7.723-15.263-17.25 0-9.527 6.834-17.25 15.263-17.25zm-.552 1.29c-1.741.278-3.399 1.859-4.686 4.504-.373.767-.71 1.614-1.004 2.53a22.76 22.76 0 0 1 5.69-.836V7.043zm-6.98 7.448a21.382 21.382 0 0 1 1.327-3.545c.638-1.311 1.395-2.443 2.248-3.313-4.638 1.523-8.295 5.655-9.642 10.899.77-.965 1.77-1.82 2.93-2.541a16.591 16.591 0 0 1 3.137-1.5zm-.366 1.458a32.42 32.42 0 0 0-.74 6.43H56.58c.245-1.968 1.644-3.841 3.984-5.296a15.064 15.064 0 0 1 2.238-1.134zm.364 6.43c.046-2.488.363-4.824.887-6.888 1.826-.593 3.894-.951 6.095-1.003v2.694c-.821 2.376-2.496 4.27-4.6 5.197h-2.382zm-1.103 1.247H56.58c.245 1.968 1.644 3.842 3.984 5.297.678.422 1.428.802 2.238 1.134a32.422 32.422 0 0 1-.74-6.43zm1.99 6.89c-.524-2.065-.841-4.401-.887-6.89h2.383c2.103.928 3.778 2.822 4.6 5.198v2.694c-2.203-.052-4.27-.41-6.096-1.003zm-.885 1a16.591 16.591 0 0 1-3.136-1.5c-1.16-.722-2.162-1.577-2.931-2.542 1.347 5.244 5.004 9.376 9.642 10.899-.853-.87-1.61-2.002-2.248-3.313a21.382 21.382 0 0 1-1.327-3.545zm6.98 7.446c-1.741-.277-3.399-1.858-4.686-4.503a19.188 19.188 0 0 1-1.004-2.53c1.75.497 3.673.79 5.69.836v6.197zm4.508-.59c.853-.869 1.61-2 2.248-3.312.515-1.059.962-2.25 1.327-3.545a16.6 16.6 0 0 0 3.137-1.5c1.16-.72 2.162-1.576 2.93-2.54-1.347 5.243-5.003 9.375-9.642 10.898zm2.285-6.443a19.243 19.243 0 0 1-1.004 2.53c-1.287 2.645-2.944 4.226-4.686 4.503v-6.197a22.776 22.776 0 0 0 5.69-.836zm1.656-1.872c.81-.332 1.56-.712 2.239-1.134 2.34-1.455 3.739-3.329 3.984-5.297h-5.483c-.04 2.28-.3 4.453-.74 6.431zm-.363-6.43c-.046 2.488-.363 4.824-.888 6.888-1.826.593-3.893.951-6.095 1.003v-2.692c.822-2.377 2.497-4.271 4.6-5.2h2.383zm1.103-1.248h5.483c-.245-1.968-1.644-3.841-3.984-5.296a15.044 15.044 0 0 0-2.239-1.134c.44 1.977.7 4.15.74 6.43zm-1.991-6.888c.525 2.064.842 4.4.888 6.888H75.85c-2.103-.928-3.778-2.822-4.6-5.2v-2.69c2.202.05 4.269.409 6.095 1.002zm.885-1a16.6 16.6 0 0 1 3.137 1.5c1.16.72 2.162 1.576 2.93 2.54-1.347-5.243-5.003-9.375-9.642-10.898.853.87 1.61 2.002 2.248 3.313.515 1.059.962 2.25 1.327 3.545zm-6.98-7.447c1.742.277 3.4 1.858 4.686 4.503.373.767.71 1.614 1.005 2.53a22.771 22.771 0 0 0-5.69-.836V7.043z" clip-rule="evenodd"/></svg>