<svg xmlns="http://www.w3.org/2000/svg" width="166" height="46" fill="none"><path fill="#C6C6C6" d="M19.14 8.994v-5.75H2.54V42.75h16.6V37c-3.402 0-6.663-1.475-9.067-4.101-2.405-2.627-3.756-6.188-3.756-9.902 0-3.714 1.351-7.275 3.756-9.902 2.404-2.626 5.665-4.1 9.066-4.1zm0 0V37c3.401 0 6.662-1.475 9.067-4.101 2.404-2.627 3.755-6.188 3.755-9.902 0-3.714-1.35-7.275-3.755-9.902-2.405-2.626-5.666-4.1-9.066-4.1zm22.14 3.518h3.716v19.55h-3.717v-19.55zm5.795 12.856c0-1.406.382-2.781 1.098-3.95.717-1.169 1.735-2.08 2.925-2.616a5.996 5.996 0 0 1 3.763-.397c1.263.277 2.421.958 3.33 1.955a7.333 7.333 0 0 1 1.77 3.648 7.712 7.712 0 0 1-.384 4.107c-.498 1.297-1.338 2.404-2.412 3.179a6.117 6.117 0 0 1-3.624 1.177 5.945 5.945 0 0 1-2.49-.526 6.413 6.413 0 0 1-2.11-1.54 7.094 7.094 0 0 1-1.398-2.313 7.58 7.58 0 0 1-.468-2.724zm9.316 0a3.279 3.279 0 0 0-.512-1.69 2.878 2.878 0 0 0-1.282-1.101 2.601 2.601 0 0 0-1.626-.143 2.768 2.768 0 0 0-1.427.863c-.387.434-.65.984-.752 1.58a3.348 3.348 0 0 0 .172 1.771 3.039 3.039 0 0 0 1.041 1.372 2.658 2.658 0 0 0 1.561.514c.378.008.754-.069 1.103-.227.35-.157.666-.392.929-.689.263-.297.466-.65.599-1.037.132-.387.19-.8.169-1.213h.025zm18.323-6.7V31.4c0 4.492-3.221 6.4-6.48 6.4a5.753 5.753 0 0 1-3.328-.72 6.452 6.452 0 0 1-2.481-2.527l3.134-1.976c.254.56.658 1.021 1.158 1.323.5.302 1.073.43 1.642.369.362.048.73.01 1.076-.115.347-.125.665-.332.93-.606.265-.274.471-.608.604-.98.133-.371.19-.77.165-1.168v-1.23a4.437 4.437 0 0 1-1.603 1.327c-.622.3-1.299.439-1.978.404-1.642 0-3.218-.713-4.38-1.981-1.161-1.269-1.814-2.99-1.814-4.784 0-1.794.653-3.514 1.815-4.783 1.161-1.269 2.737-1.981 4.38-1.981a4.053 4.053 0 0 1 1.977.403c.621.301 1.17.756 1.603 1.328V18.75l3.58-.08zm-3.58 6.427a3.481 3.481 0 0 0-.44-1.84A3.073 3.073 0 0 0 69.387 22a2.745 2.745 0 0 0-1.727-.24 2.89 2.89 0 0 0-1.554.855 3.336 3.336 0 0 0-.85 1.66 3.528 3.528 0 0 0 .148 1.894 3.21 3.21 0 0 0 1.093 1.48 2.8 2.8 0 0 0 1.663.557 2.56 2.56 0 0 0 1.141-.171c.365-.144.699-.37.979-.663.28-.294.5-.648.648-1.04a3.28 3.28 0 0 0 .206-1.237zm5.671.274c0-1.406.382-2.78 1.097-3.948.715-1.168 1.732-2.079 2.92-2.616a5.995 5.995 0 0 1 3.76-.402c1.262.275 2.421.953 3.33 1.948a7.329 7.329 0 0 1 1.777 3.64 7.712 7.712 0 0 1-.375 4.105c-.494 1.298-1.33 2.406-2.4 3.185a6.119 6.119 0 0 1-3.618 1.19 5.956 5.956 0 0 1-2.496-.522 6.42 6.42 0 0 1-2.117-1.539 7.105 7.105 0 0 1-1.404-2.314 7.597 7.597 0 0 1-.474-2.727zm9.316 0a3.28 3.28 0 0 0-.513-1.693 2.878 2.878 0 0 0-1.284-1.1 2.6 2.6 0 0 0-1.627-.14 2.77 2.77 0 0 0-1.427.866 3.19 3.19 0 0 0-.75 1.584 3.348 3.348 0 0 0 .178 1.771 3.036 3.036 0 0 0 1.046 1.37c.465.333 1.009.51 1.565.508.378.008.754-.07 1.103-.227.35-.158.666-.393.929-.69a3.06 3.06 0 0 0 .598-1.037c.133-.387.19-.8.17-1.212h.012zm5.391-10.287c0-.476.129-.942.371-1.338a2.26 2.26 0 0 1 .99-.887c.403-.182.846-.23 1.274-.137.428.093.82.322 1.13.66.307.336.517.765.602 1.232.086.467.042.952-.125 1.392-.167.44-.45.816-.812 1.08a2.074 2.074 0 0 1-1.225.406 2.14 2.14 0 0 1-1.552-.713 2.552 2.552 0 0 1-.653-1.695zm.359 3.585h3.716v13.395h-3.716V18.667zm19.623 6.701a7.328 7.328 0 0 1-.353 2.621 6.917 6.917 0 0 1-1.248 2.273 6.273 6.273 0 0 1-1.952 1.574 5.779 5.779 0 0 1-2.356.635 4.257 4.257 0 0 1-2.029-.355 4.62 4.62 0 0 1-1.687-1.282v6.615h-3.717V18.671h3.717v1.258a4.606 4.606 0 0 1 1.688-1.277 4.243 4.243 0 0 1 2.028-.347c.813.04 1.61.255 2.347.631a6.258 6.258 0 0 1 1.947 1.564 6.9 6.9 0 0 1 1.251 2.258 7.33 7.33 0 0 1 .364 2.61zm-3.716 0a3.402 3.402 0 0 0-.529-1.753 2.981 2.981 0 0 0-1.329-1.14 2.694 2.694 0 0 0-1.685-.147 2.867 2.867 0 0 0-1.477.896 3.306 3.306 0 0 0-.777 1.64 3.463 3.463 0 0 0 .184 1.834 3.14 3.14 0 0 0 1.082 1.417 2.75 2.75 0 0 0 1.62.527 2.6 2.6 0 0 0 1.154-.214c.366-.16.698-.402.973-.711.275-.31.487-.678.622-1.083.135-.405.19-.837.162-1.266zm15.025 2.676c0 3.085-2.478 4.397-5.104 4.397a5.002 5.002 0 0 1-3.087-.712 5.673 5.673 0 0 1-2.19-2.48l3.196-1.976c.127.483.401.903.778 1.191.376.289.832.427 1.291.392.879 0 1.325-.298 1.325-.84 0-1.474-6.033-.69-6.033-5.33 0-2.922 2.255-4.383 4.807-4.383a5.01 5.01 0 0 1 2.789.695 5.617 5.617 0 0 1 2.067 2.16l-3.196 1.84a1.94 1.94 0 0 0-.664-.855 1.704 1.704 0 0 0-.984-.323c-.644 0-1.028.271-1.028.744 0 1.543 6.033.528 6.033 5.48zm13.468-9.378V32.06h-3.717v-1.258a4.291 4.291 0 0 1-1.564 1.287 3.915 3.915 0 0 1-1.929.377c-2.478 0-4.596-1.935-4.596-5.547v-8.253h3.716v7.644a2.4 2.4 0 0 0 .102.946c.096.303.251.58.454.812.205.232.453.412.726.53.274.116.568.167.861.147 1.338 0 2.28-.866 2.28-2.706v-7.373h3.667zm21.059 5.172v8.226h-3.716V24.19c0-1.353-.583-2.192-1.759-2.192-1.177 0-1.921.934-1.921 2.517v7.55h-3.716V24.19c0-1.353-.582-2.192-1.759-2.192s-1.92.934-1.92 2.517v7.55h-3.717V18.67h3.717v1.231a3.86 3.86 0 0 1 1.463-1.253 3.507 3.507 0 0 1 1.832-.343 3.371 3.371 0 0 1 1.817.416 3.748 3.748 0 0 1 1.391 1.343 4.133 4.133 0 0 1 1.571-1.38 3.738 3.738 0 0 1 1.985-.38c2.899 0 4.732 2.193 4.732 5.534zm3.122-5.252c1.505 0 2.725-1.333 2.725-2.977 0-1.643-1.22-2.976-2.725-2.976-1.505 0-2.725 1.333-2.725 2.976 0 1.644 1.22 2.977 2.725 2.977z"/></svg>