<svg xmlns="http://www.w3.org/2000/svg" width="157" height="46" fill="none"><path fill="#C6C6C6" d="M45.805 14.797h3.818v17.085h-3.818V14.797zm5.34 10.659c0-4.232 2.379-6.77 5.947-6.77s5.947 2.538 5.947 6.77c0 4.232-2.296 6.794-5.947 6.794-3.651 0-5.947-2.47-5.947-6.794zm8.112 0c0-2.327-.82-3.694-2.13-3.694-1.308 0-2.116 1.315-2.116 3.694 0 2.378.808 3.68 2.117 3.68 1.308 0 2.153-1.302 2.153-3.667l-.024-.014zm5.304 7.307h3.688c.167.439.46.805.834 1.042a1.82 1.82 0 0 0 1.235.272c1.463 0 2.224-.867 2.224-2.155v-2.366h.012a3.915 3.915 0 0 1-1.461 1.761 3.375 3.375 0 0 1-2.107.54c-2.795 0-4.65-2.354-4.65-6.401 0-4.049 1.772-6.572 4.757-6.572a3.388 3.388 0 0 1 2.141.615 3.96 3.96 0 0 1 1.427 1.87h-.107v-2.38h3.782V31.79c0 3.089-2.474 5.02-6.113 5.02-3.307-.012-5.424-1.681-5.638-4.034l-.024-.013zm7.993-7.307c0-2.064-.856-3.365-2.212-3.365-1.356 0-2.189 1.314-2.189 3.364s.821 3.26 2.189 3.26 2.212-1.117 2.212-3.26zm5.293 0c0-4.232 2.379-6.77 5.947-6.77s5.947 2.538 5.947 6.77c0 4.232-2.308 6.794-5.947 6.794-3.64 0-5.923-2.47-5.923-6.794h-.024zm8.112 0c0-2.327-.833-3.694-2.13-3.694-1.296 0-2.116 1.315-2.116 3.694 0 2.378.808 3.68 2.117 3.68 1.308 0 2.152-1.302 2.152-3.667l-.023-.014zm5.328-9.582c-.017-.43.084-.855.288-1.221.204-.367.502-.657.857-.834a1.776 1.776 0 0 1 1.133-.161c.383.072.739.27 1.02.567.281.298.475.681.558 1.102.082.42.048.858-.097 1.257a2.12 2.12 0 0 1-.716.983c-.323.241-.703.37-1.092.37a1.721 1.721 0 0 1-.728-.14 1.87 1.87 0 0 1-.624-.44 2.09 2.09 0 0 1-.42-.67 2.264 2.264 0 0 1-.155-.8l-.024-.013zm0 3.102h3.866v12.959h-3.806l-.06-12.959zm17.77 6.48c0 4.218-1.713 6.663-4.627 6.663a3.381 3.381 0 0 1-2.126-.583 3.938 3.938 0 0 1-1.442-1.822h-.072V36.1h-3.818V19.016h3.795v2.313h.071a3.989 3.989 0 0 1 1.427-1.872 3.414 3.414 0 0 1 2.141-.626c2.997-.026 4.722 2.406 4.722 6.638l-.071-.014zm-3.89 0c0-2.05-.868-3.378-2.212-3.378-1.344 0-2.188 1.314-2.2 3.378-.012 2.063.856 3.364 2.2 3.364 1.344 0 2.284-1.222 2.284-3.351l-.072-.014zm10.408-6.782c3.199 0 5.185 1.669 5.209 4.35h-3.485c0-.933-.702-1.511-1.748-1.511-1.047 0-1.546.446-1.546 1.117 0 .67.44.88 1.32 1.078l2.45.552c2.379.551 3.33 1.603 3.33 3.561 0 2.629-2.2 4.416-5.471 4.416s-5.4-1.735-5.554-4.376h3.699c.107.96.796 1.524 1.914 1.524 1.119 0 1.642-.394 1.642-1.09 0-.697-.357-.816-1.273-1.026l-2.212-.512c-2.296-.54-3.497-1.867-3.497-3.851.071-2.576 2.07-4.22 5.293-4.22l-.071-.012zm18.316 13.248h-3.699V29.49h-.071a3.722 3.722 0 0 1-1.279 2.01 3.131 3.131 0 0 1-2.135.685 3.738 3.738 0 0 1-1.679-.335 4.085 4.085 0 0 1-1.408-1.064 4.583 4.583 0 0 1-.892-1.607 4.922 4.922 0 0 1-.219-1.87v-8.32h3.818v7.413c0 1.524.725 2.352 1.915 2.352a1.79 1.79 0 0 0 .807-.2 1.97 1.97 0 0 0 .659-.553 2.24 2.24 0 0 0 .394-.805c.076-.296.095-.607.055-.913V18.99h3.806l-.072 12.933zm1.844-12.946h3.711v2.497h.083a3.79 3.79 0 0 1 1.249-1.997 3.188 3.188 0 0 1 2.093-.736 2.843 2.843 0 0 1 2.11.676c.603.508 1.012 1.246 1.149 2.07h.167a3.936 3.936 0 0 1 1.361-2.043 3.329 3.329 0 0 1 2.207-.704 3.397 3.397 0 0 1 1.527.294c.485.216.923.542 1.286.958.362.416.641.911.818 1.454.178.543.25 1.122.211 1.697v8.793h-3.842V24.22c0-1.314-.559-2.05-1.642-2.05a1.534 1.534 0 0 0-.698.155c-.22.107-.415.265-.574.464a1.89 1.89 0 0 0-.349.686 2.051 2.051 0 0 0-.056.784v7.676h-3.639V24.18c0-1.315-.583-2.011-1.63-2.011a1.563 1.563 0 0 0-.704.162 1.72 1.72 0 0 0-.581.469 2.035 2.035 0 0 0-.415 1.485v7.649h-3.818l-.024-12.959zm-97.483-3.062c0-2.616-.715-5.171-2.051-7.33-1.336-2.16-3.232-3.823-5.438-4.772a10.704 10.704 0 0 0-6.925-.547c-2.306.593-4.396 1.942-5.996 3.87H2.998v34.617h31.34V25.573a12.99 12.99 0 0 0 2.89-4.368 14.137 14.137 0 0 0 1.024-5.291zm-6.03 0a6.82 6.82 0 0 1-.96 3.523c-.63 1.043-1.524 1.857-2.571 2.338a5.229 5.229 0 0 1-3.314.366c-1.112-.242-2.135-.845-2.938-1.73a6.563 6.563 0 0 1-1.572-3.244 6.955 6.955 0 0 1 .324-3.662c.434-1.158 1.168-2.148 2.111-2.845a5.354 5.354 0 0 1 3.187-1.068c1.518 0 2.974.665 4.05 1.85 1.074 1.186 1.68 2.794 1.682 4.472zm-3.914 19.175H9.028V13.798h5.876a13.843 13.843 0 0 0-.179 2.116c.004 3.446 1.244 6.75 3.45 9.187 2.205 2.437 5.195 3.807 8.314 3.81.61-.003 1.218-.06 1.82-.17v6.348z"/></svg>